<?xml version="1.0" encoding="UTF-8"?>
<svg version="1.1" xmlns="http://www.w3.org/2000/svg" width="500" height="500">
<path d="M0 0 C165 0 330 0 500 0 C500 165 500 330 500 500 C335 500 170 500 0 500 C0 335 0 170 0 0 Z " fill="#070A52" transform="translate(0,0)"/>
<path d="M0 0 C3.0625 0.1875 3.0625 0.1875 5.0625 2.1875 C4.8125 4.75 4.8125 4.75 4.0625 7.1875 C3.4025 7.5175 2.7425 7.8475 2.0625 8.1875 C2.10346802 9.1619104 2.10346802 9.1619104 2.14526367 10.15600586 C2.71929474 28.65822802 2.71929474 28.65822802 -1.06640625 34.4375 C-3.91871349 36.70960819 -6.75904812 38.39646759 -9.9375 40.1875 C-13.5675 42.8275 -17.1975 45.4675 -20.9375 48.1875 C-21.2675 57.7575 -21.5975 67.3275 -21.9375 77.1875 C3.1425 76.8575 28.2225 76.5275 54.0625 76.1875 C54.3925 77.8375 54.7225 79.4875 55.0625 81.1875 C56.04653415 83.13684606 57.10805663 85.04803235 58.22265625 86.92578125 C59.1652832 88.52583008 59.1652832 88.52583008 60.12695312 90.15820312 C61.11598633 91.81239258 61.11598633 91.81239258 62.125 93.5 C62.78822266 94.62212891 63.45144531 95.74425781 64.13476562 96.90039062 C65.77096602 99.6666287 67.41371864 102.4287485 69.0625 105.1875 C68.0725 105.1875 67.0825 105.1875 66.0625 105.1875 C65.07614479 103.42839516 64.10142442 101.66098667 63.20776367 99.85302734 C61.47457494 96.38664988 59.7575336 93.007884 57.0625 90.1875 C53.60426557 89.27743831 51.19492923 89.50087702 47.67578125 89.98828125 C46.81339844 90.05402344 45.95101562 90.11976563 45.0625 90.1875 C42.4375 87.75 42.4375 87.75 41.0625 85.1875 C40.4025 84.8575 39.7425 84.5275 39.0625 84.1875 C38.7325 82.5375 38.4025 80.8875 38.0625 79.1875 C21.2325 79.1875 4.4025 79.1875 -12.9375 79.1875 C-13.2675 80.8375 -13.5975 82.4875 -13.9375 84.1875 C-18.69716648 88.48280878 -21.89227733 88.35594274 -27.9375 88.1875 C-28.54053955 89.23538696 -28.54053955 89.23538696 -29.15576172 90.30444336 C-30.69616966 92.98027038 -32.2374216 95.65560948 -33.77902222 98.33074951 C-34.80995739 100.1205857 -35.8396868 101.91111199 -36.86938477 103.70166016 C-39.92639341 109.01159399 -42.99339201 114.31297758 -46.16015625 119.55859375 C-46.62502441 120.33146729 -47.08989258 121.10434082 -47.56884766 121.90063477 C-48.41914451 123.30799526 -49.27655047 124.71109299 -50.14208984 126.10913086 C-52.19622518 129.51634501 -52.9375 131.09534629 -52.9375 135.1875 C-51.9475 135.8475 -50.9575 136.5075 -49.9375 137.1875 C-49.5390625 139.46484375 -49.5390625 139.46484375 -49.5625 142.125 C-49.55089844 143.43791016 -49.55089844 143.43791016 -49.5390625 144.77734375 C-49.9375 147.1875 -49.9375 147.1875 -51.5234375 148.69140625 C-51.99007812 149.18511719 -52.45671875 149.67882812 -52.9375 150.1875 C-52.52607887 154.00412209 -51.25649494 156.74219852 -49.3046875 160.01171875 C-48.74394531 160.96111328 -48.18320313 161.91050781 -47.60546875 162.88867188 C-47.01378906 163.87416016 -46.42210938 164.85964844 -45.8125 165.875 C-44.68365575 167.77400298 -43.55614197 169.67379723 -42.4296875 171.57421875 C-41.3929187 173.21100586 -41.3929187 173.21100586 -40.33520508 174.88085938 C-38.2494919 178.36754195 -36.80919066 181.9648461 -35.3269043 185.74414062 C-32.20615202 193.05975537 -29.07616893 199.93454918 -22.9375 205.1875 C-12.67982498 209.20677201 -1.18164933 208.07390708 9.61468506 207.43634033 C13.61533271 207.22863546 17.61804766 207.17202577 21.62304688 207.1015625 C29.44566573 206.94219279 37.24965144 206.61897066 45.0625 206.1875 C45.18625 205.56875 45.31 204.95 45.4375 204.3125 C46.0625 202.1875 46.0625 202.1875 48.0625 200.1875 C51.6875 200.0625 51.6875 200.0625 55.0625 200.1875 C55.4028125 199.1975 55.4028125 199.1975 55.75 198.1875 C57.46821358 194.26015467 59.73024607 190.77489822 62.0625 187.1875 C62.3925 187.8475 62.7225 188.5075 63.0625 189.1875 C62.1441217 190.88841929 61.1511684 192.54935362 60.125 194.1875 C57.28429364 199.14404282 56.50444363 202.54107946 57.046875 208.19140625 C57.05460937 209.17947266 57.05460937 209.17947266 57.0625 210.1875 C55.0625 212.1875 55.0625 212.1875 52.953125 212.21484375 C52.08171875 212.18519531 51.2103125 212.15554688 50.3125 212.125 C42.83063265 212.58084887 38.36392487 217.12594622 32.93359375 221.81640625 C30.0625 224.1875 30.0625 224.1875 28.0625 224.1875 C28.0625 232.1075 28.0625 240.0275 28.0625 248.1875 C29.0525 248.5175 30.0425 248.8475 31.0625 249.1875 C31.1875 251.5625 31.1875 251.5625 31.0625 254.1875 C30.4025 254.8475 29.7425 255.5075 29.0625 256.1875 C24.50694444 255.63194444 24.50694444 255.63194444 23.0625 254.1875 C22.875 251.75 22.875 251.75 23.0625 249.1875 C23.7225 248.5275 24.3825 247.8675 25.0625 247.1875 C25.13636991 244.98408963 25.13636991 244.98408963 24.84375 242.453125 C23.97412714 227.06699354 23.97412714 227.06699354 27.81933594 221.76513672 C32.65382451 217.062381 38.25357396 213.55822653 44.0625 210.1875 C45.0525 209.5275 46.0425 208.8675 47.0625 208.1875 C38.32562539 207.93072459 29.59008113 207.73624233 20.85023403 207.61756611 C16.79014205 207.56055569 12.73266131 207.483473 8.67407227 207.35766602 C-13.87445241 205.84637073 -13.87445241 205.84637073 -33.40956116 215.30940247 C-34.64384007 216.54655839 -35.80225036 217.8588889 -36.9375 219.1875 C-37.2675 218.5275 -37.5975 217.8675 -37.9375 217.1875 C-33.9775 214.2175 -30.0175 211.2475 -25.9375 208.1875 C-26.81828613 203.78356936 -27.59569435 201.65651629 -29.7890625 197.92578125 C-30.68419556 196.38869507 -30.68419556 196.38869507 -31.59741211 194.82055664 C-32.24589111 193.72477295 -32.89437012 192.62898926 -33.5625 191.5 C-34.93207349 189.1725024 -36.30068412 186.84446526 -37.66796875 184.515625 C-38.01978714 183.91814957 -38.37160553 183.32067413 -38.73408508 182.70509338 C-41.23268163 178.4443673 -43.62744188 174.13512167 -45.98828125 169.796875 C-46.64617243 168.60331833 -47.30485291 167.41019635 -47.96435547 166.2175293 C-49.21497182 163.94785079 -50.44785164 161.66828631 -51.66064453 159.37817383 C-55.14718863 152.82400191 -55.14718863 152.82400191 -61.31640625 149.21484375 C-63.10884766 148.70630859 -63.10884766 148.70630859 -64.9375 148.1875 C-65.66381836 146.12329102 -65.66381836 146.12329102 -65.9375 144.1875 C-81.64903013 142.3839728 -81.64903013 142.3839728 -95.93286133 147.52001953 C-98.37714598 149.63339854 -100.6500545 151.90671373 -102.9375 154.1875 C-104.19673214 154.88755162 -105.45719132 155.58539978 -106.71875 156.28125 C-109.17211492 157.98009391 -109.8396897 158.8041556 -110.58764648 161.7355957 C-110.85138842 164.84305272 -110.90738233 167.88177252 -110.875 171 C-110.89111328 172.07443359 -110.90722656 173.14886719 -110.92382812 174.25585938 C-110.95909717 176.90103758 -110.96260745 179.54231915 -110.9375 182.1875 C-109.9475 182.5175 -108.9575 182.8475 -107.9375 183.1875 C-107.89495644 185.18704746 -107.89669217 187.18791636 -107.9375 189.1875 C-108.9375 190.1875 -108.9375 190.1875 -112 190.25 C-112.969375 190.229375 -113.93875 190.20875 -114.9375 190.1875 C-114.9375 189.5275 -114.9375 188.8675 -114.9375 188.1875 C-113.2875 188.1875 -111.6375 188.1875 -109.9375 188.1875 C-109.9375 186.8675 -109.9375 185.5475 -109.9375 184.1875 C-111.5875 184.1875 -113.2375 184.1875 -114.9375 184.1875 C-114.4425 183.1975 -114.4425 183.1975 -113.9375 182.1875 C-113.85530822 180.42083227 -113.82923892 178.65138892 -113.83203125 176.8828125 C-113.81720703 175.82449219 -113.80238281 174.76617187 -113.78710938 173.67578125 C-113.76245743 171.44153618 -113.75711146 169.20699109 -113.77148438 166.97265625 C-113.71072063 163.94183451 -113.57202922 161.15246112 -112.9375 158.1875 C-110.41015625 155.8203125 -110.41015625 155.8203125 -106.9375 154.1875 C-105.55510628 153.21055648 -104.19416745 152.20281777 -102.8515625 151.171875 C-102.14902344 150.64335937 -101.44648437 150.11484375 -100.72265625 149.5703125 C-100.00980469 149.03148437 -99.29695313 148.49265625 -98.5625 147.9375 C-97.45841797 147.10605469 -97.45841797 147.10605469 -96.33203125 146.2578125 C-94.53274311 144.90250455 -92.73460039 143.54570669 -90.9375 142.1875 C-92.75045208 137.16067832 -95.53807286 133.04500339 -98.4765625 128.61328125 C-99.9375 126.1875 -99.9375 126.1875 -99.9375 124.1875 C-100.72125 124.22875 -101.505 124.27 -102.3125 124.3125 C-104.9375 124.1875 -104.9375 124.1875 -106.9375 122.1875 C-106.38194444 117.63194444 -106.38194444 117.63194444 -104.9375 116.1875 C-102.5 116 -102.5 116 -99.9375 116.1875 C-99.2775 116.8475 -98.6175 117.5075 -97.9375 118.1875 C-97.98777344 119.23421875 -98.03804687 120.2809375 -98.08984375 121.359375 C-97.89627936 126.22330069 -96.25719249 128.57157304 -93.5 132.4375 C-89.01910237 138.94269288 -89.01910237 138.94269288 -87.9375 142.1875 C-81.3375 142.1875 -74.7375 142.1875 -67.9375 142.1875 C-67.6075 140.5375 -67.2775 138.8875 -66.9375 137.1875 C-65.3125 134.875 -65.3125 134.875 -62.9375 133.1875 C-59.1875 132.9375 -59.1875 132.9375 -55.9375 133.1875 C-55.65624268 132.45136475 -55.37498535 131.71522949 -55.08520508 130.95678711 C-54.05288128 128.46590244 -52.91430548 126.21397376 -51.57421875 123.87890625 C-51.10540283 123.05962646 -50.63658691 122.24034668 -50.15356445 121.39624023 C-49.39692505 120.08635132 -49.39692505 120.08635132 -48.625 118.75 C-48.10317139 117.84000244 -47.58134277 116.93000488 -47.04370117 115.99243164 C-44.16510957 110.98917546 -41.24677448 106.01157906 -38.2890625 101.0546875 C-37.69778564 100.06267334 -37.10650879 99.07065918 -36.49731445 98.04858398 C-35.34973802 96.12847391 -34.19737443 94.21121528 -33.03979492 92.29711914 C-32.2563269 90.98795532 -32.2563269 90.98795532 -31.45703125 89.65234375 C-30.76250854 88.50173462 -30.76250854 88.50173462 -30.05395508 87.32788086 C-28.9800848 85.26914028 -28.38901909 83.45603749 -27.9375 81.1875 C-28.5975 81.1875 -29.2575 81.1875 -29.9375 81.1875 C-30.27413062 77.48456315 -30.41486015 75.79215619 -28.0625 72.8125 C-25.9375 71.1875 -25.9375 71.1875 -23.9375 71.1875 C-22.70209691 58.18391694 -22.70209691 58.18391694 -26.22998047 46.03466797 C-32.02138139 39.60036358 -38.42287038 36.77082269 -46.9375 36.1875 C-47.5625 33.3125 -47.5625 33.3125 -47.9375 30.1875 C-45.9375 28.1875 -45.9375 28.1875 -43.375 28 C-40.9375 28.1875 -40.9375 28.1875 -39.9375 29.1875 C-39.89669217 31.18708364 -39.89495644 33.18795254 -39.9375 35.1875 C-39.39996094 35.41953125 -38.86242187 35.6515625 -38.30859375 35.890625 C-34.67743945 37.87669292 -31.59114787 40.58052106 -28.44726562 43.26171875 C-26.74731969 44.67709516 -26.74731969 44.67709516 -23.9375 46.1875 C-19.20538549 45.42793106 -15.45239435 41.65305603 -11.8125 38.6875 C-10.58144544 37.69702575 -9.34969945 36.70741013 -8.1171875 35.71875 C-7.30870361 35.06229492 -7.30870361 35.06229492 -6.48388672 34.39257812 C-5.02134827 33.25284182 -3.48027866 32.21601911 -1.9375 31.1875 C-1.48827108 28.80140445 -1.48827108 28.80140445 -1.57421875 26.03125 C-1.57486328 25.00902344 -1.57550781 23.98679688 -1.57617188 22.93359375 C-1.59228516 21.86238281 -1.60839844 20.79117188 -1.625 19.6875 C-1.62016602 18.08068359 -1.62016602 18.08068359 -1.61523438 16.44140625 C-1.26669872 10.75564153 -1.26669872 10.75564153 -3.9375 6.1875 C-4.125 3.625 -4.125 3.625 -3.9375 1.1875 C-2.9375 0.1875 -2.9375 0.1875 0 0 Z " fill="#997935" transform="translate(136.9375,107.8125)"/>
<path d="M0 0 C2.5625 0.1875 2.5625 0.1875 4.5625 2.1875 C4.51222656 3.23421875 4.46195313 4.2809375 4.41015625 5.359375 C4.60372064 10.22330069 6.24280751 12.57157304 9 16.4375 C13.48089763 22.94269288 13.48089763 22.94269288 14.5625 26.1875 C23.4725 26.1875 32.3825 26.1875 41.5625 26.1875 C42.2225 24.5375 42.8825 22.8875 43.5625 21.1875 C45.1875 19.375 45.1875 19.375 46.5625 18.1875 C46.2325 19.074375 45.9025 19.96125 45.5625 20.875 C44.21350725 25.34353848 43.86111551 27.79803642 46.00390625 32.04296875 C46.70386719 33.14253906 47.40382812 34.24210937 48.125 35.375 C48.9545131 36.70535762 49.78110612 38.03753849 50.60546875 39.37109375 C51.07130371 40.12245605 51.53713867 40.87381836 52.01708984 41.64794922 C55.08481438 46.68909782 57.99973725 51.81992553 60.9375 56.9375 C62.77039107 60.12475399 64.6017059 63.29903853 66.52905273 66.43041992 C68.18764078 69.26522833 69.23881354 72.07361028 70.26977539 75.1887207 C72.3786717 80.82037907 74.53858987 85.63611525 79.5625 89.1875 C89.87168795 92.31663955 101.19578784 91.36638645 111.84002686 90.95568848 C115.86842935 90.82081326 119.8974474 90.7951489 123.92773438 90.75976562 C131.81056574 90.67471696 139.68427949 90.469918 147.5625 90.1875 C147.68625 89.56875 147.81 88.95 147.9375 88.3125 C148.5625 86.1875 148.5625 86.1875 150.5625 84.1875 C154.1875 84.0625 154.1875 84.0625 157.5625 84.1875 C157.9028125 83.1975 157.9028125 83.1975 158.25 82.1875 C159.96821358 78.26015467 162.23024607 74.77489822 164.5625 71.1875 C164.8925 71.8475 165.2225 72.5075 165.5625 73.1875 C164.6441217 74.88841929 163.6511684 76.54935362 162.625 78.1875 C159.78429364 83.14404282 159.00444363 86.54107946 159.546875 92.19140625 C159.55460937 93.17947266 159.55460937 93.17947266 159.5625 94.1875 C157.5625 96.1875 157.5625 96.1875 155.453125 96.21484375 C154.58171875 96.18519531 153.7103125 96.15554688 152.8125 96.125 C145.33063265 96.58084887 140.86392487 101.12594622 135.43359375 105.81640625 C132.5625 108.1875 132.5625 108.1875 130.5625 108.1875 C130.5625 116.1075 130.5625 124.0275 130.5625 132.1875 C131.5525 132.5175 132.5425 132.8475 133.5625 133.1875 C133.6875 135.5625 133.6875 135.5625 133.5625 138.1875 C132.9025 138.8475 132.2425 139.5075 131.5625 140.1875 C127.00694444 139.63194444 127.00694444 139.63194444 125.5625 138.1875 C125.375 135.75 125.375 135.75 125.5625 133.1875 C126.2225 132.5275 126.8825 131.8675 127.5625 131.1875 C127.63636991 128.98408963 127.63636991 128.98408963 127.34375 126.453125 C126.47412714 111.06699354 126.47412714 111.06699354 130.31933594 105.76513672 C135.15382451 101.062381 140.75357396 97.55822653 146.5625 94.1875 C147.5525 93.5275 148.5425 92.8675 149.5625 92.1875 C140.82562539 91.93072459 132.09008113 91.73624233 123.35023403 91.61756611 C119.29014205 91.56055569 115.23266131 91.483473 111.17407227 91.35766602 C88.62554759 89.84637073 88.62554759 89.84637073 69.09043884 99.30940247 C67.85615993 100.54655839 66.69774964 101.8588889 65.5625 103.1875 C65.2325 102.5275 64.9025 101.8675 64.5625 101.1875 C68.5225 98.2175 72.4825 95.2475 76.5625 92.1875 C75.68171387 87.78356936 74.90430565 85.65651629 72.7109375 81.92578125 C72.11418213 80.90105713 71.51742676 79.87633301 70.90258789 78.82055664 C70.25410889 77.72477295 69.60562988 76.62898926 68.9375 75.5 C67.56792651 73.1725024 66.19931588 70.84446526 64.83203125 68.515625 C64.48021286 67.91814957 64.12839447 67.32067413 63.76591492 66.70509338 C61.26731837 62.4443673 58.87255812 58.13512167 56.51171875 53.796875 C55.85382757 52.60331833 55.19514709 51.41019635 54.53564453 50.2175293 C53.28502818 47.94785079 52.05214836 45.66828631 50.83935547 43.37817383 C47.35281137 36.82400191 47.35281137 36.82400191 41.18359375 33.21484375 C39.98863281 32.87582031 38.79367188 32.53679687 37.5625 32.1875 C36.83618164 30.12329102 36.83618164 30.12329102 36.5625 28.1875 C20.85096987 26.3839728 20.85096987 26.3839728 6.56713867 31.52001953 C4.12285402 33.63339854 1.8499455 35.90671373 -0.4375 38.1875 C-1.69673214 38.88755162 -2.95719132 39.58539978 -4.21875 40.28125 C-6.67211492 41.98009391 -7.3396897 42.8041556 -8.08764648 45.7355957 C-8.35138842 48.84305272 -8.40738233 51.88177252 -8.375 55 C-8.39111328 56.07443359 -8.40722656 57.14886719 -8.42382812 58.25585938 C-8.45909717 60.90103758 -8.46260745 63.54231915 -8.4375 66.1875 C-7.4475 66.5175 -6.4575 66.8475 -5.4375 67.1875 C-5.39495644 69.18704746 -5.39669217 71.18791636 -5.4375 73.1875 C-6.4375 74.1875 -6.4375 74.1875 -9.5 74.25 C-10.469375 74.229375 -11.43875 74.20875 -12.4375 74.1875 C-12.4375 73.5275 -12.4375 72.8675 -12.4375 72.1875 C-10.7875 72.1875 -9.1375 72.1875 -7.4375 72.1875 C-7.4375 70.8675 -7.4375 69.5475 -7.4375 68.1875 C-9.0875 68.1875 -10.7375 68.1875 -12.4375 68.1875 C-11.9425 67.1975 -11.9425 67.1975 -11.4375 66.1875 C-11.35530822 64.42083227 -11.32923892 62.65138892 -11.33203125 60.8828125 C-11.31720703 59.82449219 -11.30238281 58.76617187 -11.28710938 57.67578125 C-11.26245743 55.44153618 -11.25711146 53.20699109 -11.27148438 50.97265625 C-11.21072063 47.94183451 -11.07202922 45.15246112 -10.4375 42.1875 C-7.91015625 39.8203125 -7.91015625 39.8203125 -4.4375 38.1875 C-3.05510628 37.21055648 -1.69416745 36.20281777 -0.3515625 35.171875 C0.35097656 34.64335937 1.05351563 34.11484375 1.77734375 33.5703125 C2.49019531 33.03148437 3.20304687 32.49265625 3.9375 31.9375 C4.67355469 31.38320312 5.40960938 30.82890625 6.16796875 30.2578125 C7.96725689 28.90250455 9.76539961 27.54570669 11.5625 26.1875 C9.74954792 21.16067832 6.96192714 17.04500339 4.0234375 12.61328125 C2.5625 10.1875 2.5625 10.1875 2.5625 8.1875 C1.77875 8.22875 0.995 8.27 0.1875 8.3125 C-2.4375 8.1875 -2.4375 8.1875 -4.4375 6.1875 C-3.71780303 0.28598485 -3.71780303 0.28598485 0 0 Z " fill="#D4AB50" transform="translate(34.4375,223.8125)"/>
<path d="M0 0 C2.97 0 5.94 0 9 0 C9 3.3 9 6.6 9 10 C11.31 10 13.62 10 16 10 C16 6.7 16 3.4 16 0 C18.97 0 21.94 0 25 0 C25 9.24 25 18.48 25 28 C22.03 28 19.06 28 16 28 C16 24.7 16 21.4 16 18 C13.69 18 11.38 18 9 18 C9 21.3 9 24.6 9 28 C6.03 28 3.06 28 0 28 C0 18.76 0 9.52 0 0 Z " fill="#101153" transform="translate(334,235)"/>
<path d="M0 0 C2.866875 -0.103125 5.73375 -0.20625 8.6875 -0.3125 C10.02880981 -0.38078003 10.02880981 -0.38078003 11.3972168 -0.45043945 C15.66743924 -0.52466671 17.49892417 -0.36587506 21.0546875 2.23046875 C23.05784825 5.08235826 23.61912698 6.21509994 23.4375 9.625 C23.41558594 10.38039062 23.39367187 11.13578125 23.37109375 11.9140625 C23 14 23 14 21 17 C20.34 17 19.68 17 19 17 C20.65 20.3 22.3 23.6 24 27 C21.03 27 18.06 27 15 27 C13.58398438 24.31445312 13.58398438 24.31445312 12.16796875 21.62890625 C11.00980201 19.67732013 11.00980201 19.67732013 8 19 C8 21.64 8 24.28 8 27 C5.36 27 2.72 27 0 27 C0 18.09 0 9.18 0 0 Z " fill="#F6C56F" transform="translate(228,237)"/>
<path d="M0 0 C7 0 7 0 9.43359375 2.40625 C10.42552734 3.93765625 10.42552734 3.93765625 11.4375 5.5 C12.11683594 6.5209375 12.79617187 7.541875 13.49609375 8.59375 C13.99238281 9.3878125 14.48867187 10.181875 15 11 C15.33 7.37 15.66 3.74 16 0 C18.64 0 21.28 0 24 0 C24 8.91 24 17.82 24 27 C17 27 17 27 14.56640625 24.6640625 C13.90511719 23.66117187 13.24382812 22.65828125 12.5625 21.625 C11.54349609 20.12839844 11.54349609 20.12839844 10.50390625 18.6015625 C9 16 9 16 9 14 C8.34 14 7.68 14 7 14 C7 18.29 7 22.58 7 27 C4.69 27 2.38 27 0 27 C0 18.09 0 9.18 0 0 Z " fill="#FAC86F" transform="translate(119,237)"/>
<path d="M0 0 C6.27 0 12.54 0 19 0 C19 2.64 19 5.28 19 8 C15.7 8 12.4 8 9 8 C9 8.66 9 9.32 9 10 C11.97 10 14.94 10 18 10 C18 12.64 18 15.28 18 18 C15.03 18 12.06 18 9 18 C9 18.66 9 19.32 9 20 C12.63 20 16.26 20 20 20 C20 22.64 20 25.28 20 28 C13.4 28 6.8 28 0 28 C0 18.76 0 9.52 0 0 Z " fill="#0D0F52" transform="translate(430,235)"/>
<path d="M0 0 C3.3 0 6.6 0 10 0 C11.32 3.63 12.64 7.26 14 11 C15.65 7.37 17.3 3.74 19 0 C22.3 0 25.6 0 29 0 C25.95795174 9.448244 22.53048312 18.72659766 19 28 C16.03 28 13.06 28 10 28 C0 5.16666667 0 5.16666667 0 0 Z " fill="#0D0F52" transform="translate(391,235)"/>
<path d="M0 0 C2.05078125 0.03255208 4.1015625 0.06510417 6.15234375 0.09765625 C8.69539708 5.67281163 11.09472708 11.29674094 13.40234375 16.97265625 C13.67256348 17.62693604 13.9427832 18.28121582 14.22119141 18.95532227 C15.38102195 21.83401422 16.15234375 23.96270635 16.15234375 27.09765625 C13.51234375 27.09765625 10.87234375 27.09765625 8.15234375 27.09765625 C7.82234375 25.77765625 7.49234375 24.45765625 7.15234375 23.09765625 C3.85234375 23.09765625 0.55234375 23.09765625 -2.84765625 23.09765625 C-3.17765625 24.41765625 -3.50765625 25.73765625 -3.84765625 27.09765625 C-6.48765625 27.09765625 -9.12765625 27.09765625 -11.84765625 27.09765625 C-10.11938408 20.79097885 -8.01067789 14.65660566 -5.72265625 8.53515625 C-5.45694824 7.82037109 -5.19124023 7.10558594 -4.91748047 6.36914062 C-2.56256102 0.13544191 -2.56256102 0.13544191 0 0 Z " fill="#F5C46E" transform="translate(274.84765625,236.90234375)"/>
<path d="M0 0 C2.64 0 5.28 0 8 0 C8.33 5.94 8.66 11.88 9 18 C10.65 18.33 12.3 18.66 14 19 C15.51421001 17.48578999 15.21309856 16.07527232 15.31640625 13.96484375 C15.35830078 13.15595703 15.40019531 12.34707031 15.44335938 11.51367188 C15.50233398 10.2384668 15.50233398 10.2384668 15.5625 8.9375 C15.60568359 8.08349609 15.64886719 7.22949219 15.69335938 6.34960938 C15.79976702 4.23327963 15.90041731 2.11666187 16 0 C18.64 0 21.28 0 24 0 C24.08132642 3.04221065 24.14065374 6.0822238 24.1875 9.125 C24.21263672 9.9809375 24.23777344 10.836875 24.26367188 11.71875 C24.3236235 16.91455735 23.95354114 20.52430291 21 25 C17.47275047 27.60344608 14.72304031 28.23531253 10.4375 28 C5.95774083 27.320104 3.77806994 25.6462168 1 22 C0.05862745 19.17588235 -0.11725382 17.47081968 -0.09765625 14.55078125 C-0.09443359 13.70322266 -0.09121094 12.85566406 -0.08789062 11.98242188 C-0.07951172 11.10134766 -0.07113281 10.22027344 -0.0625 9.3125 C-0.05798828 8.41982422 -0.05347656 7.52714844 -0.04882812 6.60742188 C-0.03704983 4.40488013 -0.02060164 2.20247401 0 0 Z " fill="#F7C56F" transform="translate(190,237)"/>
<path d="M0 0 C3.0625 0.1875 3.0625 0.1875 5.0625 2.1875 C4.8125 4.75 4.8125 4.75 4.0625 7.1875 C3.4025 7.5175 2.7425 7.8475 2.0625 8.1875 C2.10346802 9.1619104 2.10346802 9.1619104 2.14526367 10.15600586 C2.71929474 28.65822802 2.71929474 28.65822802 -1.06640625 34.4375 C-3.91871349 36.70960819 -6.75904812 38.39646759 -9.9375 40.1875 C-15.3825 44.1475 -15.3825 44.1475 -20.9375 48.1875 C-21.2675 57.7575 -21.5975 67.3275 -21.9375 77.1875 C3.1425 76.8575 28.2225 76.5275 54.0625 76.1875 C54.3925 77.8375 54.7225 79.4875 55.0625 81.1875 C56.04653415 83.13684606 57.10805663 85.04803235 58.22265625 86.92578125 C59.1652832 88.52583008 59.1652832 88.52583008 60.12695312 90.15820312 C60.78630859 91.26099609 61.44566406 92.36378906 62.125 93.5 C62.78822266 94.62212891 63.45144531 95.74425781 64.13476562 96.90039062 C65.77096602 99.6666287 67.41371864 102.4287485 69.0625 105.1875 C68.0725 105.1875 67.0825 105.1875 66.0625 105.1875 C61.1125 96.6075 56.1625 88.0275 51.0625 79.1875 C26.3125 79.1875 1.5625 79.1875 -23.9375 79.1875 C-24.2675 80.1775 -24.5975 81.1675 -24.9375 82.1875 C-25.4325 81.1975 -25.4325 81.1975 -25.9375 80.1875 C-25.6075 79.5275 -25.2775 78.8675 -24.9375 78.1875 C-22.78666787 61.60997198 -22.78666787 61.60997198 -26.18701172 45.71191406 C-30.68380368 40.27489633 -36.48432465 37.36805185 -43.40625 36.45703125 C-45.15421875 36.32361328 -45.15421875 36.32361328 -46.9375 36.1875 C-47.5625 33.3125 -47.5625 33.3125 -47.9375 30.1875 C-45.9375 28.1875 -45.9375 28.1875 -43.375 28 C-40.9375 28.1875 -40.9375 28.1875 -39.9375 29.1875 C-39.89669217 31.18708364 -39.89495644 33.18795254 -39.9375 35.1875 C-39.39996094 35.41953125 -38.86242187 35.6515625 -38.30859375 35.890625 C-34.67743945 37.87669292 -31.59114787 40.58052106 -28.44726562 43.26171875 C-26.74731969 44.67709516 -26.74731969 44.67709516 -23.9375 46.1875 C-19.20538549 45.42793106 -15.45239435 41.65305603 -11.8125 38.6875 C-10.58144544 37.69702575 -9.34969945 36.70741013 -8.1171875 35.71875 C-7.57819824 35.28111328 -7.03920898 34.84347656 -6.48388672 34.39257812 C-5.02134827 33.25284182 -3.48027866 32.21601911 -1.9375 31.1875 C-1.48827108 28.80140445 -1.48827108 28.80140445 -1.57421875 26.03125 C-1.57486328 25.00902344 -1.57550781 23.98679688 -1.57617188 22.93359375 C-1.59228516 21.86238281 -1.60839844 20.79117188 -1.625 19.6875 C-1.62177734 18.61628906 -1.61855469 17.54507813 -1.61523438 16.44140625 C-1.26669872 10.75564153 -1.26669872 10.75564153 -3.9375 6.1875 C-4.125 3.625 -4.125 3.625 -3.9375 1.1875 C-2.9375 0.1875 -2.9375 0.1875 0 0 Z " fill="#CAA369" transform="translate(136.9375,107.8125)"/>
<path d="M0 0 C6.27 0 12.54 0 19 0 C19 1.98 19 3.96 19 6 C15.37 6 11.74 6 8 6 C8 7.32 8 8.64 8 10 C11.3 10 14.6 10 18 10 C18.04254356 11.99954746 18.04080783 14.00041636 18 16 C17 17 17 17 14.93359375 17.09765625 C14.10988281 17.08605469 13.28617188 17.07445312 12.4375 17.0625 C11.61121094 17.05347656 10.78492188 17.04445312 9.93359375 17.03515625 C8.97646484 17.01775391 8.97646484 17.01775391 8 17 C8 17.99 8 18.98 8 20 C11.63 20 15.26 20 19 20 C19 22.31 19 24.62 19 27 C12.73 27 6.46 27 0 27 C0 18.09 0 9.18 0 0 Z " fill="#F2C26E" transform="translate(158,237)"/>
<path d="M0 0 C2.31 0.33 4.62 0.66 7 1 C7 1.66 7 2.32 7 3 C7.99 3.33 8.98 3.66 10 4 C10.33 5.98 10.66 7.96 11 10 C27.83 10 44.66 10 62 10 C62.33 8.35 62.66 6.7 63 5 C65.13573281 2.60539049 66.7429994 1.20201795 69.96875 0.68359375 C73.92578003 0.57285597 76.55989405 1.22063485 80 3 C83.39472417 2.66052758 86.03078942 1.64956143 89 0 C88.525625 0.78375 88.05125 1.5675 87.5625 2.375 C85.3608521 6.07376847 84.96946965 7.55991496 85.25 11.8125 C85.33092027 16.47215887 85.33092027 16.47215887 83.890625 18.76953125 C82.5 20.125 82.5 20.125 80 22 C79.18697675 20.54195831 78.37459869 19.08355685 77.5625 17.625 C77.11003906 16.81289062 76.65757812 16.00078125 76.19140625 15.1640625 C75.4349464 13.79003378 74.70145369 12.40290739 74 11 C49.58 11 25.16 11 0 11 C0 7.37 0 3.74 0 0 Z " fill="#483D59" transform="translate(115,174)"/>
<path d="M0 0 C2.5625 0.1875 2.5625 0.1875 4.5625 2.1875 C4.51222656 3.23421875 4.46195313 4.2809375 4.41015625 5.359375 C4.60372064 10.22330069 6.24280751 12.57157304 9 16.4375 C13.48089763 22.94269288 13.48089763 22.94269288 14.5625 26.1875 C23.4725 26.1875 32.3825 26.1875 41.5625 26.1875 C42.2225 24.5375 42.8825 22.8875 43.5625 21.1875 C45.1875 19.375 45.1875 19.375 46.5625 18.1875 C46.32273438 19.00734375 46.08296875 19.8271875 45.8359375 20.671875 C45.53945312 21.74953125 45.24296875 22.8271875 44.9375 23.9375 C44.63585937 25.00484375 44.33421875 26.0721875 44.0234375 27.171875 C43.52904281 30.40638938 43.76679716 31.52624255 45.5625 34.1875 C40.07097458 33.57733051 40.07097458 33.57733051 37.6875 31.75 C36.5625 30.1875 36.5625 30.1875 36.5625 28.1875 C20.85096987 26.3839728 20.85096987 26.3839728 6.56713867 31.52001953 C4.12285402 33.63339854 1.8499455 35.90671373 -0.4375 38.1875 C-1.69673214 38.88755162 -2.95719132 39.58539978 -4.21875 40.28125 C-6.67211492 41.98009391 -7.3396897 42.8041556 -8.08764648 45.7355957 C-8.35138842 48.84305272 -8.40738233 51.88177252 -8.375 55 C-8.39111328 56.07443359 -8.40722656 57.14886719 -8.42382812 58.25585938 C-8.45909717 60.90103758 -8.46260745 63.54231915 -8.4375 66.1875 C-7.4475 66.5175 -6.4575 66.8475 -5.4375 67.1875 C-5.39495644 69.18704746 -5.39669217 71.18791636 -5.4375 73.1875 C-6.4375 74.1875 -6.4375 74.1875 -9.5 74.25 C-10.469375 74.229375 -11.43875 74.20875 -12.4375 74.1875 C-12.4375 73.5275 -12.4375 72.8675 -12.4375 72.1875 C-10.7875 72.1875 -9.1375 72.1875 -7.4375 72.1875 C-7.4375 70.8675 -7.4375 69.5475 -7.4375 68.1875 C-9.0875 68.1875 -10.7375 68.1875 -12.4375 68.1875 C-11.9425 67.1975 -11.9425 67.1975 -11.4375 66.1875 C-11.35530822 64.42083227 -11.32923892 62.65138892 -11.33203125 60.8828125 C-11.31720703 59.82449219 -11.30238281 58.76617187 -11.28710938 57.67578125 C-11.26245743 55.44153618 -11.25711146 53.20699109 -11.27148438 50.97265625 C-11.21072063 47.94183451 -11.07202922 45.15246112 -10.4375 42.1875 C-7.91015625 39.8203125 -7.91015625 39.8203125 -4.4375 38.1875 C-3.05510628 37.21055648 -1.69416745 36.20281777 -0.3515625 35.171875 C0.35097656 34.64335937 1.05351563 34.11484375 1.77734375 33.5703125 C2.49019531 33.03148437 3.20304687 32.49265625 3.9375 31.9375 C4.67355469 31.38320312 5.40960938 30.82890625 6.16796875 30.2578125 C7.96725689 28.90250455 9.76539961 27.54570669 11.5625 26.1875 C9.74954792 21.16067832 6.96192714 17.04500339 4.0234375 12.61328125 C2.5625 10.1875 2.5625 10.1875 2.5625 8.1875 C1.77875 8.22875 0.995 8.27 0.1875 8.3125 C-2.4375 8.1875 -2.4375 8.1875 -4.4375 6.1875 C-3.71780303 0.28598485 -3.71780303 0.28598485 0 0 Z " fill="#C39D68" transform="translate(34.4375,223.8125)"/>
<path d="M0 0 C2.64 0 5.28 0 8 0 C8 6.6 8 13.2 8 20 C11.63 20 15.26 20 19 20 C19 22.31 19 24.62 19 27 C12.73 27 6.46 27 0 27 C0 18.09 0 9.18 0 0 Z " fill="#F7C56F" transform="translate(303,237)"/>
<path d="M0 0 C7.25 0 7.25 0 11 1 C10.01 1 9.02 1 8 1 C9.1375562 3.59141286 9.1375562 3.59141286 11 6 C13.62694422 6.41780879 13.62694422 6.41780879 16 6 C14.06745228 8.0245738 12.36841312 9.42105792 10 11 C13.50776784 12.60355101 16.14354879 13.22036864 20 13 C21.00217064 9.41672247 21.00217064 9.41672247 20 6 C20.99 6.33 21.98 6.66 23 7 C23.35880399 12.3820598 23.35880399 12.3820598 21.875 14.9375 C19.03116492 16.54900655 17.1204071 15.73421344 14 15 C9.01204956 14.08384584 4.87532431 13.3748919 0 15 C-2.68352442 15.6447071 -5.23427763 16.08330489 -8 16 C-10.5625 14.375 -10.5625 14.375 -12 12 C-11.83849795 8.60845705 -11.41703243 7.41703243 -9 5 C-2.91304348 5.54347826 -2.91304348 5.54347826 0 7 C0.99 5.35 1.98 3.7 3 2 C2.01 1.34 1.02 0.68 0 0 Z " fill="#C9A269" transform="translate(371,201)"/>
<path d="M0 0 C2.97 0 5.94 0 9 0 C9 9.24 9 18.48 9 28 C6.03 28 3.06 28 0 28 C0 18.76 0 9.52 0 0 Z " fill="#121353" transform="translate(372,235)"/>
<path d="M0 0 C6.27 0 12.54 0 19 0 C19 2.64 19 5.28 19 8 C15.7 8 12.4 8 9 8 C9 8.66 9 9.32 9 10 C11.97 10 14.94 10 18 10 C18 12.64 18 15.28 18 18 C15.03 18 12.06 18 9 18 C9 18.66 9 19.32 9 20 C12.63 20 16.26 20 20 20 C20 22.64 20 25.28 20 28 C13.4 28 6.8 28 0 28 C0 18.76 0 9.52 0 0 Z M1 2 C1 9.92 1 17.84 1 26 C6.61 26 12.22 26 18 26 C18 24.68 18 23.36 18 22 C14.37 22 10.74 22 7 22 C7 20.02 7 18.04 7 16 C9.97 16 12.94 16 16 16 C16 14.68 16 13.36 16 12 C13.03 12 10.06 12 7 12 C7 10.02 7 8.04 7 6 C10.3 6 13.6 6 17 6 C17 4.68 17 3.36 17 2 C11.72 2 6.44 2 1 2 Z " fill="#D7AD6B" transform="translate(430,235)"/>
<path d="M0 0 C2.97 0 5.94 0 9 0 C9 3.3 9 6.6 9 10 C11.31 10 13.62 10 16 10 C16 6.7 16 3.4 16 0 C18.97 0 21.94 0 25 0 C25 9.24 25 18.48 25 28 C22.03 28 19.06 28 16 28 C16 24.7 16 21.4 16 18 C13.69 18 11.38 18 9 18 C9 21.3 9 24.6 9 28 C6.03 28 3.06 28 0 28 C0 18.76 0 9.52 0 0 Z M17 1 C17 4.3 17 7.6 17 11 C14.03 11 11.06 11 8 11 C8 8.03 8 5.06 8 2 C6.02 2 4.04 2 2 2 C2 9.92 2 17.84 2 26 C3.98 26 5.96 26 8 26 C8 23.03 8 20.06 8 17 C10.97 17 13.94 17 17 17 C17 19.97 17 22.94 17 26 C18.98 26 20.96 26 23 26 C23 17.75 23 9.5 23 1 C21.02 1 19.04 1 17 1 Z " fill="#E0B46C" transform="translate(334,235)"/>
<path d="M0 0 C8.24057562 -0.23208294 16.47977905 -0.4095607 24.72281837 -0.51812172 C28.55092688 -0.57023819 32.37679473 -0.64086033 36.20361328 -0.75439453 C39.89966023 -0.86335801 43.59355869 -0.92289792 47.2910881 -0.94877243 C48.69876322 -0.96719912 50.10632517 -1.00319016 51.5130806 -1.05730057 C55.84961419 -1.21741245 59.82016782 -1.22447026 64 0 C67.00866906 2.94541381 68.79410842 5.96612098 70 10 C69.67 10.66 69.34 11.32 69 12 C65.29049531 12.2878064 61.70009403 12.44849625 58 12 C55.4375 9.5625 55.4375 9.5625 54 7 C53.34 6.67 52.68 6.34 52 6 C51.505 3.525 51.505 3.525 51 1 C34.17 1 17.34 1 0 1 C0 0.67 0 0.34 0 0 Z " fill="#393254" transform="translate(124,186)"/>
<path d="M0 0 C1.55796669 0.01120686 3.1159547 0.01974 4.6739502 0.02572632 C8.75154192 0.04850828 12.82782748 0.10733582 16.90490723 0.1739502 C21.07444596 0.23560508 25.24419818 0.2627905 29.4140625 0.29296875 C37.57872082 0.35709283 45.7423224 0.45933902 53.90625 0.5859375 C49.28125 5.4609375 49.28125 5.4609375 45.90625 6.5859375 C45.41125 4.1109375 45.41125 4.1109375 44.90625 1.5859375 C28.07625 1.5859375 11.24625 1.5859375 -6.09375 1.5859375 C-6.42375 2.9059375 -6.75375 4.2259375 -7.09375 5.5859375 C-8.53125 7.8359375 -8.53125 7.8359375 -11.09375 9.5859375 C-14.45315814 9.92346045 -17.72941555 9.81707498 -21.09375 9.5859375 C-21.09375 8.9259375 -21.09375 8.2659375 -21.09375 7.5859375 C-22.08375 7.2559375 -23.07375 6.9259375 -24.09375 6.5859375 C-17.28868086 -0.83801343 -9.34629469 -0.19821472 0 0 Z " fill="#53454F" transform="translate(131.09375,314.4140625)"/>
<path d="M0 0 C3.3 0 6.6 0 10 0 C11.32 3.63 12.64 7.26 14 11 C15.65 7.37 17.3 3.74 19 0 C22.3 0 25.6 0 29 0 C25.95795174 9.448244 22.53048312 18.72659766 19 28 C16.03 28 13.06 28 10 28 C0 5.16666667 0 5.16666667 0 0 Z M2 2 C3.12057319 5.25154331 4.24722944 8.50094672 5.375 11.75 C5.69210937 12.67039063 6.00921875 13.59078125 6.3359375 14.5390625 C6.6453125 15.42851562 6.9546875 16.31796875 7.2734375 17.234375 C7.55622559 18.05131836 7.83901367 18.86826172 8.13037109 19.70996094 C8.95939065 21.89306129 9.91672885 23.93306884 11 26 C13.31 26 15.62 26 18 26 C19.15558273 23.12882484 20.29766867 20.25246071 21.4375 17.375 C21.92573242 16.16263672 21.92573242 16.16263672 22.42382812 14.92578125 C24.12222454 10.61850786 25.46729499 6.63678449 26 2 C24.02 2 22.04 2 20 2 C19.65066406 2.92683594 19.30132812 3.85367188 18.94140625 4.80859375 C18.48636719 6.00613281 18.03132813 7.20367187 17.5625 8.4375 C17.11003906 9.63246094 16.65757812 10.82742187 16.19140625 12.05859375 C15 15 15 15 14 16 C12.35 11.38 10.7 6.76 9 2 C6.69 2 4.38 2 2 2 Z " fill="#C29C68" transform="translate(391,235)"/>
<path d="M0 0 C2.31 0.33 4.62 0.66 7 1 C6.67 1.66 6.34 2.32 6 3 C5.34 3 4.68 3 4 3 C4.08081582 6.43846747 4.19366152 9.87515312 4.3125 13.3125 C4.33505859 14.28896484 4.35761719 15.26542969 4.38085938 16.27148438 C4.4340332 17.67817383 4.4340332 17.67817383 4.48828125 19.11328125 C4.51446533 19.97735596 4.54064941 20.84143066 4.56762695 21.73168945 C5.08315072 24.43622434 6.01408583 25.18228898 8 27 C8.125 29.5 8.125 29.5 7 32 C5.31603184 32.67777104 3.63196586 33.35530067 1.94726562 34.03125 C-1.55740936 35.77479944 -4.09636712 38.47998817 -6.8125 41.25 C-7.38419922 41.79785156 -7.95589844 42.34570312 -8.54492188 42.91015625 C-12.35591139 46.73458052 -13.94381047 49.69887039 -15 55 C-16.8125 55.625 -16.8125 55.625 -19 56 C-19.99 55.34 -20.98 54.68 -22 54 C-22.3125 51.5 -22.3125 51.5 -22 49 C-21.34 48.34 -20.68 47.68 -20 47 C-18.92685547 47.14115234 -18.92685547 47.14115234 -17.83203125 47.28515625 C-13.21426305 46.82019476 -10.84025493 43.64220558 -7.6875 40.4375 C-7.04232422 39.82841797 -6.39714844 39.21933594 -5.73242188 38.59179688 C-1.75093582 34.62689299 -1.75093582 34.62689299 -0.76953125 29.16015625 C-0.84558594 28.11730469 -0.92164062 27.07445312 -1 26 C-0.01 25.34 0.98 24.68 2 24 C2.50776044 21.78067723 2.50776044 21.78067723 2.51171875 19.2109375 C2.54716797 18.26992188 2.58261719 17.32890625 2.61914062 16.359375 C2.64169922 15.37453125 2.66425781 14.3896875 2.6875 13.375 C2.72166016 12.38242187 2.75582031 11.38984375 2.79101562 10.3671875 C2.87365657 7.91157094 2.94275127 5.45631859 3 3 C2.01 2.67 1.02 2.34 0 2 C0 1.34 0 0.68 0 0 Z " fill="#D0A76A" transform="translate(91,331)"/>
<path d="M0 0 C12.87312261 -0.85948148 12.87312261 -0.85948148 16.75 2.0625 C19.36598105 5.47780859 19.83306975 7.74327874 20 12 C15.47150059 12.73545554 11.48972893 13.06500547 7 12 C3.73327745 8.39606738 1.83341587 4.4802017 0 0 Z " fill="#272355" transform="translate(107,302)"/>
<path d="M0 0 C2.31 0.33 4.62 0.66 7 1 C7 1.66 7 2.32 7 3 C7.99 3.33 8.98 3.66 10 4 C10.33 5.98 10.66 7.96 11 10 C27.5 10 44 10 61 10 C61 10.33 61 10.66 61 11 C40.87 11 20.74 11 0 11 C0 7.37 0 3.74 0 0 Z " fill="#242153" transform="translate(115,174)"/>
<path d="M0 0 C0.33 0 0.66 0 1 0 C1 1.65 1 3.3 1 5 C26.08 4.67 51.16 4.34 77 4 C77.495 6.475 77.495 6.475 78 9 C78.98403415 10.94934606 80.04555663 12.86053235 81.16015625 14.73828125 C81.78857422 15.80498047 82.41699219 16.87167969 83.06445312 17.97070312 C83.72380859 19.07349609 84.38316406 20.17628906 85.0625 21.3125 C85.72572266 22.43462891 86.38894531 23.55675781 87.07226562 24.71289062 C88.70846602 27.4791287 90.35121864 30.2412485 92 33 C91.01 33 90.02 33 89 33 C84.05 24.42 79.1 15.84 74 7 C49.25 7 24.5 7 -1 7 C-1.33 7.99 -1.66 8.98 -2 10 C-2.33 9.34 -2.66 8.68 -3 8 C-2.34 7.01 -1.68 6.02 -1 5 C-0.61500109 3.34450469 -0.27206865 1.6777567 0 0 Z " fill="#DFB751" transform="translate(114,180)"/>
<path d="M0 0 C-2.12058145 1.67257128 -4.24604076 3.33815418 -6.375 5 C-6.97828125 5.47695313 -7.5815625 5.95390625 -8.203125 6.4453125 C-12.7734375 10 -12.7734375 10 -15 10 C-15 17.92 -15 25.84 -15 34 C-14.01 34.33 -13.02 34.66 -12 35 C-11.875 37.375 -11.875 37.375 -12 40 C-12.66 40.66 -13.32 41.32 -14 42 C-18.55555556 41.44444444 -18.55555556 41.44444444 -20 40 C-20.1875 37.5625 -20.1875 37.5625 -20 35 C-19.34 34.34 -18.68 33.68 -18 33 C-17.85983919 30.74990078 -17.85983919 30.74990078 -18.078125 28.16015625 C-18.61555885 12.57714596 -18.61555885 12.57714596 -15.63574219 7.82373047 C-11.76586036 3.67806142 -5.77999365 -1.92666455 0 0 Z " fill="#BC9767" transform="translate(180,322)"/>
<path d="M0 0 C0.33 0.66 0.66 1.32 1 2 C0.0816217 3.70091929 -0.9113316 5.36185362 -1.9375 7 C-4.77820636 11.95654282 -5.55805637 15.35357946 -5.015625 21.00390625 C-5.01046875 21.66261719 -5.0053125 22.32132812 -5 23 C-7 25 -7 25 -9.3828125 25.1953125 C-10.28773438 25.17210937 -11.19265625 25.14890625 -12.125 25.125 C-13.49011719 25.09792969 -13.49011719 25.09792969 -14.8828125 25.0703125 C-15.58148438 25.04710937 -16.28015625 25.02390625 -17 25 C-14.47211993 22.20127563 -12.79588866 20.54226981 -9 20 C-8.67 18.35 -8.34 16.7 -8 15 C-8.37125 15.66 -8.7425 16.32 -9.125 17 C-11 19 -11 19 -14.1875 19.25 C-15.115625 19.1675 -16.04375 19.085 -17 19 C-16.42655063 16.13275314 -16.1385485 15.1385485 -14 13 C-10.375 12.875 -10.375 12.875 -7 13 C-6.773125 12.34 -6.54625 11.68 -6.3125 11 C-4.59428642 7.07265467 -2.33225393 3.58739822 0 0 Z " fill="#8F7348" transform="translate(199,295)"/>
<path d="M0 0 C3.0625 0.1875 3.0625 0.1875 5.0625 2.1875 C4.8125 4.75 4.8125 4.75 4.0625 7.1875 C3.0725 7.6825 3.0725 7.6825 2.0625 8.1875 C2.06362793 8.8580542 2.06475586 9.5286084 2.06591797 10.21948242 C2.0537752 13.27233288 1.9960924 16.32270227 1.9375 19.375 C1.94007813 20.43009766 1.94265625 21.48519531 1.9453125 22.57226562 C1.75101013 30.27149685 1.75101013 30.27149685 -0.33105469 33.04150391 C-1.9921875 34.42578125 -1.9921875 34.42578125 -4.9375 36.1875 C-5.5975 35.8575 -6.2575 35.5275 -6.9375 35.1875 C-6.12152344 34.76726562 -5.30554688 34.34703125 -4.46484375 33.9140625 C-0.48884721 29.62465665 -1.32457157 25.18996873 -1.5 19.5625 C-1.50580078 18.5003125 -1.51160156 17.438125 -1.51757812 16.34375 C-1.24629421 10.70757216 -1.24629421 10.70757216 -3.9375 6.1875 C-4.125 3.625 -4.125 3.625 -3.9375 1.1875 C-2.9375 0.1875 -2.9375 0.1875 0 0 Z " fill="#BD9867" transform="translate(136.9375,107.8125)"/>
<path d="M0 0 C2.97 0 5.94 0 9 0 C10 2 10 2 9.44140625 4.1640625 C9.15136719 4.97617188 8.86132812 5.78828125 8.5625 6.625 C8.27503906 7.44226563 7.98757813 8.25953125 7.69140625 9.1015625 C7.46324219 9.72804687 7.23507812 10.35453125 7 11 C4.36 11 1.72 11 -1 11 C-1 10.34 -1 9.68 -1 9 C-1.66 9 -2.32 9 -3 9 C-4.125 5.25 -4.125 5.25 -3 3 C-2.34 3 -1.68 3 -1 3 C-0.67 2.01 -0.34 1.02 0 0 Z " fill="#1B1954" transform="translate(374,214)"/>
<path d="M0 0 C-1.0625 2.9375 -1.0625 2.9375 -3 6 C-5.32716 6.37400786 -7.66117862 6.70764733 -10 7 C-11.0409066 8.64142963 -12.04504326 10.30712215 -13 12 C-15.6875 12.3125 -15.6875 12.3125 -18 12 C-18.41427251 9.1000924 -18.47607884 6.90332908 -17.0859375 4.265625 C-12.47762033 -1.39371187 -6.7839342 -0.59277095 0 0 Z " fill="#312B56" transform="translate(195,302)"/>
<path d="M0 0 C2.5 1.375 2.5 1.375 5 4 C5.75718031 7.45390712 5.72616525 10.54233624 5 14 C3.5356444 16.27732543 2.20461225 17.34654081 0 19 C-4.01782985 13.03413143 -4.01782985 13.03413143 -3.9375 8.375 C-3.03161694 5.113821 -1.92696695 2.76477867 0 0 Z " fill="#5C4C5B" transform="translate(82,241)"/>
<path d="M0 0 C2.97 0 5.94 0 9 0 C9 9.24 9 18.48 9 28 C6.03 28 3.06 28 0 28 C0 18.76 0 9.52 0 0 Z M1 2 C1 9.92 1 17.84 1 26 C2.98 26 4.96 26 7 26 C7 18.08 7 10.16 7 2 C5.02 2 3.04 2 1 2 Z " fill="#C9A169" transform="translate(372,235)"/>
<path d="M0 0 C2.82137394 4.2320609 3.55545401 7.76439567 3.44921875 12.765625 C2.92143447 15.39077813 2.31361328 16.36599672 0.3125 18.125 C-4.98449898 21.33165434 -11.16553648 19.88613657 -17 19 C-15.18901618 16.69623147 -14.27162488 16.04858979 -11.3359375 15.5234375 C-10.35882813 15.47445313 -9.38171875 15.42546875 -8.375 15.375 C-4.87540099 15.47545725 -4.87540099 15.47545725 -2 14 C-1.96823695 11.50886952 -2.06822746 9.03240039 -2.16015625 6.54296875 C-1.99070777 3.85245757 -1.3649995 2.29641092 0 0 Z " fill="#433959" transform="translate(195,304)"/>
<path d="M0 0 C4.88764045 5.86516854 4.88764045 5.86516854 6 9 C5.68798738 11.59490498 5.32390261 12.70483695 3.37109375 14.484375 C2.73300781 14.90203125 2.09492187 15.3196875 1.4375 15.75 C0.79683594 16.17796875 0.15617187 16.6059375 -0.50390625 17.046875 C-0.99761719 17.36140625 -1.49132812 17.6759375 -2 18 C-3.41514574 15.16970852 -3.20780992 12.71620867 -3.25 9.5625 C-3.28867188 7.83193359 -3.28867188 7.83193359 -3.328125 6.06640625 C-3 3 -3 3 -1.484375 1.08984375 C-0.74960938 0.55037109 -0.74960938 0.55037109 0 0 Z " fill="#2E2856" transform="translate(106,304)"/>
<path d="M0 0 C1 1 1 1 1.25 3.4375 C1.1675 4.283125 1.085 5.12875 1 6 C0.01 6.66 -0.98 7.32 -2 8 C-2.39439832 10.32306507 -2.39439832 10.32306507 -2.265625 13.015625 C-2.26949219 14.01980469 -2.27335938 15.02398437 -2.27734375 16.05859375 C-2.2592468 18.17076671 -2.22562173 20.28286886 -2.17578125 22.39453125 C-2.24400081 30.0253765 -2.24400081 30.0253765 -4.60742188 33.07226562 C-6.33999203 34.55707651 -8.04338842 35.83060398 -10 37 C-10.66 36.67 -11.32 36.34 -12 36 C-11.50193848 35.69666748 -11.00387695 35.39333496 -10.49072266 35.08081055 C-7.39702789 32.89076568 -5.31487404 31.26219788 -4.37402344 27.49072266 C-4.20295072 24.57070603 -4.24123959 21.73420947 -4.375 18.8125 C-4.38144531 17.81541016 -4.38789063 16.81832031 -4.39453125 15.79101562 C-4.21759964 10.63520719 -4.21759964 10.63520719 -6.54541016 6.3581543 C-7.0254248 5.90996338 -7.50543945 5.46177246 -8 5 C-7.8125 2.375 -7.8125 2.375 -7 0 C-4.31633121 -1.3418344 -2.84719317 -0.73004953 0 0 Z " fill="#CFA76A" transform="translate(216,137)"/>
<path d="M0 0 C0.66 0.33 1.32 0.66 2 1 C1.01 2.175625 1.01 2.175625 0 3.375 C-2.06867142 6.38853172 -2.14803252 8.4510575 -1.9375 12.0625 C-1.71445219 16.54373322 -1.71445219 16.54373322 -3.09765625 18.75390625 C-4.5 20.125 -4.5 20.125 -7 22 C-9.09220252 17.81559495 -8.56671475 12.54617327 -8 8 C-5.6875 5.5 -5.6875 5.5 -3 4 C-1.23676495 1.87396815 -1.23676495 1.87396815 0 0 Z " fill="#332C57" transform="translate(202,174)"/>
<path d="M0 0 C2.5625 0.1875 2.5625 0.1875 4.5625 2.1875 C4.4078125 3.6415625 4.4078125 3.6415625 4.25 5.125 C4.01403609 10.21967535 7.28578885 13.76620335 10.12890625 17.734375 C10.60199219 18.54390625 11.07507812 19.3534375 11.5625 20.1875 C11.2325 21.1775 10.9025 22.1675 10.5625 23.1875 C9.22371428 21.0657637 7.89134524 18.94044812 6.5625 16.8125 C6.1809375 16.20921875 5.799375 15.6059375 5.40625 14.984375 C2.5625 10.4140625 2.5625 10.4140625 2.5625 8.1875 C1.77875 8.22875 0.995 8.27 0.1875 8.3125 C-2.4375 8.1875 -2.4375 8.1875 -4.4375 6.1875 C-3.71780303 0.28598485 -3.71780303 0.28598485 0 0 Z " fill="#C49E68" transform="translate(34.4375,223.8125)"/>
<path d="M0 0 C2.64 0 5.28 0 8 0 C8 0.66 8 1.32 8 2 C6.02 2 4.04 2 2 2 C2 9.92 2 17.84 2 26 C3.98 26 5.96 26 8 26 C8.33 26.66 8.66 27.32 9 28 C6.03 28 3.06 28 0 28 C0 18.76 0 9.52 0 0 Z " fill="#C9A169" transform="translate(334,235)"/>
<path d="M0 0 C0.66 0.33 1.32 0.66 2 1 C0.7934375 1.6496875 0.7934375 1.6496875 -0.4375 2.3125 C-4.28203946 6.34457797 -3.89780133 10.61134269 -4 16 C-5.98223068 13.41495396 -7.62594577 10.95950142 -9 8 C-11.31 8 -13.62 8 -16 8 C-15.0625 5.5 -15.0625 5.5 -13 3 C-10.67463295 2.74456195 -8.49694918 2.87905689 -6.1640625 3.0234375 C-3.81644292 3.17685792 -3.81644292 3.17685792 -1.4375 1.5 C-0.963125 1.005 -0.48875 0.51 0 0 Z " fill="#9C7F63" transform="translate(198,177)"/>
<path d="M0 0 C-0.33 0.99 -0.66 1.98 -1 3 C-2.60875 3.12375 -2.60875 3.12375 -4.25 3.25 C-8.32457642 4.06491528 -9.56432091 4.72120123 -12 8 C-12.7872678 10.1381966 -12.7872678 10.1381966 -13 12 C-14.32 12 -15.64 12 -17 12 C-16.8281043 7.61665958 -16.39850089 5.48024466 -13.5625 2.0625 C-9.46678619 -1.00177488 -4.87741364 -0.43376208 0 0 Z " fill="#292556" transform="translate(82,238)"/>
<path d="M0 0 C2.625 -0.1875 2.625 -0.1875 5 0 C4.6406828 2.5152204 3.93759565 4.09767638 2.5625 6.25 C-1.38862385 8.94832848 -5.35441583 8.31916227 -10 8 C-10 7.34 -10 6.68 -10 6 C-10.99 5.67 -11.98 5.34 -13 5 C-10.99826733 2.99826733 -7.06293108 3.62502357 -4.34765625 3.4765625 C-1.63255354 3.21265473 -1.63255354 3.21265473 0 0 Z " fill="#433959" transform="translate(120,316)"/>
<path d="M0 0 C4 4 4 4 4.53125 6.40234375 C4.47968984 10.58516138 4.39664494 13.29485344 2.3125 17 C-1.29322681 20.11846643 -3.80970576 20.91647058 -8.5625 21.25 C-11.70934415 21.02113861 -13.38723752 20.67216798 -16 19 C-13.2981565 18.13541008 -11.45283854 18.02984517 -8.5625 18.1875 C-4.3303737 17.96475651 -3.05788994 16.79578509 0 14 C0.66 14 1.32 14 2 14 C1.34 9.38 0.68 4.76 0 0 Z " fill="#1D1B54" transform="translate(196,305)"/>
<path d="M0 0 C2 3 2 3 1.6875 5.625 C1 8 1 8 0 9 C-4.07279689 8.61577388 -7.46574118 8.12055529 -11 6 C-10.401875 5.566875 -9.80375 5.13375 -9.1875 4.6875 C-7.00796484 3.11430618 -7.00796484 3.11430618 -5.5 1.3125 C-4 0 -4 0 0 0 Z " fill="#1C1B54" transform="translate(391,206)"/>
<path d="M0 0 C3.3 0 6.6 0 10 0 C11.32 3.63 12.64 7.26 14 11 C15.65 7.37 17.3 3.74 19 0 C21.64 0 24.28 0 27 0 C27 0.33 27 0.66 27 1 C24.69 1 22.38 1 20 1 C19.9175 1.763125 19.835 2.52625 19.75 3.3125 C18.71222135 8.4149117 16.85712968 13.1455494 15 18 C12.35478068 15.35478068 11.55457481 12.33828651 10.375 8.875 C10.14554687 8.21628906 9.91609375 7.55757812 9.6796875 6.87890625 C9.11463758 5.25438774 8.55663723 3.62742029 8 2 C5.36 1.67 2.72 1.34 0 1 C0 0.67 0 0.34 0 0 Z " fill="#D7AD6B" transform="translate(391,235)"/>
<path d="M0 0 C2.31 0.33 4.62 0.66 7 1 C6.67 1.66 6.34 2.32 6 3 C5.34 3 4.68 3 4 3 C4.08081582 6.43846747 4.19366152 9.87515312 4.3125 13.3125 C4.33505859 14.28896484 4.35761719 15.26542969 4.38085938 16.27148438 C4.41630859 17.20927734 4.45175781 18.14707031 4.48828125 19.11328125 C4.51446533 19.97735596 4.54064941 20.84143066 4.56762695 21.73168945 C5.08315283 24.43623544 6.0427648 25.15888595 8 27 C7.6875 29.6875 7.6875 29.6875 7 32 C4.525 32.495 4.525 32.495 2 33 C2 32.34 2 31.68 2 31 C3.32 31 4.64 31 6 31 C6 29.35 6 27.7 6 26 C4.35 26.33 2.7 26.66 1 27 C1 28.65 1 30.3 1 32 C0.34 31.67 -0.32 31.34 -1 31 C-1.1875 28.625 -1.1875 28.625 -1 26 C-0.01 25.34 0.98 24.68 2 24 C2.50776044 21.78067723 2.50776044 21.78067723 2.51171875 19.2109375 C2.56489258 17.79941406 2.56489258 17.79941406 2.61914062 16.359375 C2.64169922 15.37453125 2.66425781 14.3896875 2.6875 13.375 C2.72166016 12.38242187 2.75582031 11.38984375 2.79101562 10.3671875 C2.87365657 7.91157094 2.94275127 5.45631859 3 3 C2.01 2.67 1.02 2.34 0 2 C0 1.34 0 0.68 0 0 Z " fill="#B79467" transform="translate(91,331)"/>
<path d="M0 0 C-1.19899698 3.0831351 -2.47700477 6.06279492 -4 9 C-6.31 9 -8.62 9 -11 9 C-10.66009204 5.94082833 -10.14301602 4.19598492 -8.3125 1.6875 C-5.37575119 -0.45553291 -3.55482252 -0.32316568 0 0 Z " fill="#594A5B" transform="translate(80,241)"/>
<path d="M0 0 C3.97132519 0.32199934 6.70665213 1.83579997 10 4 C8.60113829 6.01086371 7.44446456 6.8955776 5.0546875 7.45703125 C3.04641841 7.72695989 1.02212425 7.86954037 -1 8 C-2 7 -2 7 -2.1875 4.5625 C-2 2 -2 2 0 0 Z " fill="#0F1053" transform="translate(363,207)"/>
<path d="M0 0 C3.63 0 7.26 0 11 0 C12.32 2.31 13.64 4.62 15 7 C6.42857143 7.28571429 6.42857143 7.28571429 3 5 C3 3.68 3 2.36 3 1 C2.01 0.67 1.02 0.34 0 0 Z " fill="#6E5B5D" transform="translate(177,186)"/>
<path d="M0 0 C5.61 0 11.22 0 17 0 C17.33 2.31 17.66 4.62 18 7 C14.7 7 11.4 7 8 7 C8 7.66 8 8.32 8 9 C10.64 9.33 13.28 9.66 16 10 C16 11.65 16 13.3 16 15 C15.67 13.68 15.34 12.36 15 11 C12.03 11 9.06 11 6 11 C6 9.02 6 7.04 6 5 C9.3 5 12.6 5 16 5 C16 3.68 16 2.36 16 1 C10.72 1 5.44 1 0 1 C0 0.67 0 0.34 0 0 Z " fill="#967A63" transform="translate(431,236)"/>
<path d="M0 0 C1.32 0 2.64 0 4 0 C3.79522646 3.68592365 3.19363947 4.82052927 0.4375 7.375 C-4.05407905 9.49829191 -6.20843479 8.99135832 -11 8 C-8.40852998 4.11279497 -6.37371778 4.24963365 -2 3 C-1.34 2.01 -0.68 1.02 0 0 Z " fill="#4F425A" transform="translate(120,187)"/>
<path d="M0 0 C9.24 0 18.48 0 28 0 C29.32 2.31 30.64 4.62 32 7 C26.50847458 6.38983051 26.50847458 6.38983051 24.125 4.5625 C23 3 23 3 23 1 C15.41 1 7.82 1 0 1 C0 0.67 0 0.34 0 0 Z " fill="#836B60" transform="translate(48,251)"/>
<path d="M0 0 C5.875 4.75 5.875 4.75 7 7 C7.40310513 11.83726155 7.47543282 14.09831707 5.1875 18.4375 C3 21 3 21 0 22 C0.57344937 19.13275314 0.8614515 18.1385485 3 16 C3.35685986 13.63197999 3.35685986 13.63197999 3.3125 11 C3.32925781 10.113125 3.34601563 9.22625 3.36328125 8.3125 C3.24339844 7.549375 3.12351562 6.78625 3 6 C2.01 5.34 1.02 4.68 0 4 C0 2.68 0 1.36 0 0 Z " fill="#1A1954" transform="translate(83,239)"/>
<path d="M0 0 C7.28929385 -0.36446469 7.28929385 -0.36446469 10.4375 1.25 C12 3 12 3 13 7 C10.03 7 7.06 7 4 7 C2.02 3.535 2.02 3.535 0 0 Z " fill="#6E5A5E" transform="translate(110,307)"/>
<path d="M0 0 C1.32 0 2.64 0 4 0 C4.07089844 0.62390625 4.14179687 1.2478125 4.21484375 1.890625 C4.80004532 4.19229321 4.80004532 4.19229321 7.06640625 5.046875 C7.89011719 5.27890625 8.71382812 5.5109375 9.5625 5.75 C10.38878906 5.99234375 11.21507813 6.2346875 12.06640625 6.484375 C12.70449219 6.65453125 13.34257813 6.8246875 14 7 C14 7.66 14 8.32 14 9 C6.26528647 9.9099663 6.26528647 9.9099663 3.2890625 7.76953125 C1.02664743 5.12132864 0 3.52033808 0 0 Z " fill="#483C59" transform="translate(67,252)"/>
<path d="M0 0 C0.66 0 1.32 0 2 0 C2.1953125 6.0546875 2.1953125 6.0546875 2 8 C0 10 0 10 -2.3828125 10.1953125 C-3.28773438 10.17210937 -4.19265625 10.14890625 -5.125 10.125 C-6.49011719 10.09792969 -6.49011719 10.09792969 -7.8828125 10.0703125 C-8.58148438 10.04710937 -9.28015625 10.02390625 -10 10 C-6.47552448 6.0979021 -6.47552448 6.0979021 -3.875 5.5625 C-2.946875 5.2840625 -2.946875 5.2840625 -2 5 C-0.70339566 2.50965614 -0.70339566 2.50965614 0 0 Z " fill="#6E5B5E" transform="translate(192,310)"/>
<path d="M0 0 C1.98 0.66 3.96 1.32 6 2 C6.125 4.375 6.125 4.375 6 7 C5.34 7.66 4.68 8.32 4 9 C-0.55555556 8.44444444 -0.55555556 8.44444444 -2 7 C-2.1875 4.5625 -2.1875 4.5625 -2 2 C-1.34 1.34 -0.68 0.68 0 0 Z " fill="#C29C68" transform="translate(162,355)"/>
<path d="M0 0 C0 0.99 0 1.98 0 3 C-1.2065625 3.8971875 -1.2065625 3.8971875 -2.4375 4.8125 C-5.28845931 6.81773871 -5.28845931 6.81773871 -5.8125 10.25 C-5.874375 11.1575 -5.93625 12.065 -6 13 C-5.34 13 -4.68 13 -4 13 C-4.33 14.98 -4.66 16.96 -5 19 C-7.22711881 17.23488988 -7.94142366 16.31533596 -8.46875 13.4765625 C-8.55328616 5.76263768 -8.55328616 5.76263768 -5.6875 1.8125 C-3 0 -3 0 0 0 Z " fill="#453A58" transform="translate(113,176)"/>
<path d="M0 0 C0 0.66 0 1.32 0 2 C-1.64333504 3.03789581 -3.31243867 4.03567924 -5 5 C-7.24733824 6.82194251 -7.24733824 6.82194251 -7.23046875 9.4609375 C-7.21628906 10.42257813 -7.20210938 11.38421875 -7.1875 12.375 C-7.18105469 13.33148438 -7.17460938 14.28796875 -7.16796875 15.2734375 C-7.02057959 17.66594068 -6.67819373 19.71041797 -6 22 C-8 20.625 -8 20.625 -10 18 C-10.73670942 12.92013156 -10.71511516 7.47994001 -8 3 C-5.04951123 0.14786086 -4.28899863 0 0 0 Z " fill="#252155" transform="translate(113,174)"/>
<path d="M0 0 C2.74148672 0.37047118 4.58593199 0.68587944 6.8125 2.375 C8 4 8 4 8 7 C8.66 7.33 9.32 7.66 10 8 C6.7 8 3.4 8 0 8 C0 5.36 0 2.72 0 0 Z " fill="#65545C" transform="translate(115,177)"/>
<path d="M0 0 C1.134375 0.020625 2.26875 0.04125 3.4375 0.0625 C3.4375 2.0425 3.4375 4.0225 3.4375 6.0625 C-2.1875 7.1875 -2.1875 7.1875 -5.5625 6.0625 C-4.48849278 0.07874549 -4.48849278 0.07874549 0 0 Z " fill="#B69367" transform="translate(95.5625,325.9375)"/>
<path d="M0 0 C1 2 1 2 0.44140625 4.1640625 C0.15136719 4.97617188 -0.13867188 5.78828125 -0.4375 6.625 C-0.86869141 7.85089844 -0.86869141 7.85089844 -1.30859375 9.1015625 C-1.53675781 9.72804687 -1.76492187 10.35453125 -2 11 C-2.66 10.67 -3.32 10.34 -4 10 C-6.10374996 9.84558791 -8.21195119 9.75007361 -10.3203125 9.68359375 C-11.57714844 9.64169922 -12.83398438 9.59980469 -14.12890625 9.55664062 C-15.44761719 9.51732422 -16.76632813 9.47800781 -18.125 9.4375 C-19.46485751 9.39430488 -20.80470156 9.35069027 -22.14453125 9.30664062 C-25.42957815 9.20029019 -28.71470281 9.09826192 -32 9 C-31.67 8.34 -31.34 7.68 -31 7 C-17.635 7.495 -17.635 7.495 -4 8 C-3.34 6.35 -2.68 4.7 -2 3 C-1.34 2.01 -0.68 1.02 0 0 Z " fill="#F3C368" transform="translate(80,242)"/>
<path d="M0 0 C0.33292585 4.24480464 0.43885872 6.35542625 -2 9.9375 C-2.66 10.618125 -3.32 11.29875 -4 12 C-4 11.34 -4 10.68 -4 10 C-4.66 10 -5.32 10 -6 10 C-6.33663062 6.29706315 -6.47736015 4.60465619 -4.125 1.625 C-2 0 -2 0 0 0 Z " fill="#67555D" transform="translate(113,179)"/>
<path d="M0 0 C1.99954746 -0.04254356 4.00041636 -0.04080783 6 0 C7 1 7 1 7.125 3.5 C7 6 7 6 6 7 C4.00041636 7.04080783 1.99954746 7.04254356 0 7 C0 4.69 0 2.38 0 0 Z " fill="#191854" transform="translate(236,243)"/>
<path d="M0 0 C2.09873235 1.73373542 2.96490929 2.89974084 3.875 5.5 C4 8 4 8 2.6875 9.8125 C1 11 1 11 -1 11 C-2.50662097 7.98675805 -2.17770373 5.31713623 -2 2 C-1.34 1.34 -0.68 0.68 0 0 Z " fill="#5A4B5C" transform="translate(108,308)"/>
<path d="M0 0 C0.66 0 1.32 0 2 0 C1.39873418 6.37341772 1.39873418 6.37341772 -0.09375 8.71875 C-3.05115472 10.70651383 -5.68264409 10.28396392 -9.1875 10.1875 C-10.45980469 10.16042969 -11.73210937 10.13335937 -13.04296875 10.10546875 C-14.01878906 10.07066406 -14.99460937 10.03585938 -16 10 C-15.67 9.34 -15.34 8.68 -15 8 C-13.80375 8.0825 -12.6075 8.165 -11.375 8.25 C-6.90605984 8.25 -4.4009381 6.98618956 -1 4 C-0.04768403 1.87880872 -0.04768403 1.87880872 0 0 Z " fill="#262255" transform="translate(124,187)"/>
<path d="M0 0 C0.66 0.33 1.32 0.66 2 1 C2 1.66 2 2.32 2 3 C0.906875 3.061875 -0.18625 3.12375 -1.3125 3.1875 C-5.15014447 3.5915869 -5.15014447 3.5915869 -6.75 6.5625 C-7.1625 7.366875 -7.575 8.17125 -8 9 C-8.99 9 -9.98 9 -11 9 C-8.97701786 1.99736951 -7.64566541 -0.65069493 0 0 Z " fill="#5A4B5B" transform="translate(190,305)"/>
<path d="M0 0 C0.99 0 1.98 0 3 0 C3 0.66 3 1.32 3 2 C6.05263664 2.98120464 7.94736336 2.98120464 11 2 C11 1.34 11 0.68 11 0 C11.66 0 12.32 0 13 0 C12.34 1.98 11.68 3.96 11 6 C8.36 6 5.72 6 3 6 C3 5.34 3 4.68 3 4 C2.34 4 1.68 4 1 4 C0.67 2.68 0.34 1.36 0 0 Z " fill="#473C59" transform="translate(370,219)"/>
<path d="M0 0 C3.5 1.5 3.5 1.5 6 3 C5.67 3.66 5.34 4.32 5 5 C3.9790625 4.505 3.9790625 4.505 2.9375 4 C-1.66010212 2.43485885 -5.36992962 2.23930049 -9.8125 4.3125 C-12.22038518 5.98392208 -12.22038518 5.98392208 -14 9 C-13.72253508 5.67042093 -13.18903896 4.21195277 -10.9375 1.6875 C-7.22889844 -0.44297324 -4.13716514 -0.7016245 0 0 Z " fill="#2F2956" transform="translate(191,175)"/>
<path d="M0 0 C1.22589844 0.01353516 1.22589844 0.01353516 2.4765625 0.02734375 C3.41628906 0.04474609 3.41628906 0.04474609 4.375 0.0625 C3.42173828 0.248125 3.42173828 0.248125 2.44921875 0.4375 C0.18815475 0.86388719 0.18815475 0.86388719 -0.8125 3.0625 C-1.080625 3.7225 -1.34875 4.3825 -1.625 5.0625 C-2.625 6.0625 -2.625 6.0625 -5.6875 6.125 C-7.1415625 6.0940625 -7.1415625 6.0940625 -8.625 6.0625 C-6.70953433 0.72655991 -5.60839184 -0.08011988 0 0 Z " fill="#7A645D" transform="translate(119.625,185.9375)"/>
<path d="M0 0 C1.58294782 -0.05437607 3.16644256 -0.09296271 4.75 -0.125 C5.63171875 -0.14820313 6.5134375 -0.17140625 7.421875 -0.1953125 C10.18656684 0.01413385 11.72941842 0.41870211 14 2 C15.25 5.625 15.25 5.625 16 9 C15.01 8.67 14.02 8.34 13 8 C13 7.01 13 6.02 13 5 C10.2756595 3.29728719 7.95476399 2.81027741 4.8125 2.5 C2.9253125 2.2525 2.9253125 2.2525 1 2 C0.67 1.34 0.34 0.68 0 0 Z " fill="#50435A" transform="translate(109,305)"/>
<path d="M0 0 C1.5 1.125 1.5 1.125 3 3 C3.375 6 3.375 6 3 9 C1.5 10.875 1.5 10.875 0 12 C-2 9 -2 9 -1.6875 5.4375 C-1 2 -1 2 0 0 Z " fill="#8A7061" transform="translate(80,244)"/>
<path d="M0 0 C0.66 0 1.32 0 2 0 C2.27748242 1.41154099 2.52093516 2.82979799 2.75 4.25 C2.88921875 5.03890625 3.0284375 5.8278125 3.171875 6.640625 C3 9 3 9 1.015625 11.296875 C0.35046875 11.85890625 -0.3146875 12.4209375 -1 13 C-1.02686553 11.02090602 -1.04633375 9.04171029 -1.0625 7.0625 C-1.07410156 5.96035156 -1.08570313 4.85820312 -1.09765625 3.72265625 C-1 1 -1 1 0 0 Z " fill="#473C59" transform="translate(195,181)"/>
<path d="M0 0 C-0.99 0.33 -1.98 0.66 -3 1 C-4.20882096 3.00016466 -4.20882096 3.00016466 -5 5 C-7.64 5 -10.28 5 -13 5 C-8.7797731 -0.27528362 -6.38501231 -0.54110274 0 0 Z " fill="#80695F" transform="translate(123,315)"/>
<path d="M0 0 C0.33 0 0.66 0 1 0 C1 1.65 1 3.3 1 5 C7.93 5 14.86 5 22 5 C22 5.33 22 5.66 22 6 C14.41 6.33 6.82 6.66 -1 7 C-1.33 7.99 -1.66 8.98 -2 10 C-2.33 9.34 -2.66 8.68 -3 8 C-2.34 7.01 -1.68 6.02 -1 5 C-0.61500109 3.34450469 -0.27206865 1.6777567 0 0 Z " fill="#E1B553" transform="translate(114,180)"/>
<path d="M0 0 C-0.33 1.65 -0.66 3.3 -1 5 C-3.97 4.505 -3.97 4.505 -7 4 C-7 2.68 -7 1.36 -7 0 C-3.86650268 -1.04449911 -3.01031744 -0.93423645 0 0 Z " fill="#302A57" transform="translate(28,292)"/>
<path d="M0 0 C2.31 0.33 4.62 0.66 7 1 C6.67 1.66 6.34 2.32 6 3 C5.34 3 4.68 3 4 3 C4 10.26 4 17.52 4 25 C3.67 25 3.34 25 3 25 C3 17.74 3 10.48 3 3 C2.01 2.67 1.02 2.34 0 2 C0 1.34 0 0.68 0 0 Z " fill="#F4C36E" transform="translate(91,331)"/>
<path d="M0 0 C2.5 1.375 2.5 1.375 5 4 C5.67532881 7.41013144 5.81980218 10.61336892 5 14 C2.96484375 15.80859375 2.96484375 15.80859375 1 17 C1.33 16.01 1.66 15.02 2 14 C2.11632729 12.48233461 2.17496239 10.9595654 2.1875 9.4375 C2.20167969 8.65246094 2.21585937 7.86742187 2.23046875 7.05859375 C2.19167509 4.7756455 2.19167509 4.7756455 0 3 C0 2.01 0 1.02 0 0 Z " fill="#403658" transform="translate(82,241)"/>
<path d="M0 0 C7.25 0 7.25 0 11 1 C10.01 1 9.02 1 8 1 C8.66 1.99 9.32 2.98 10 4 C9.625 6.1875 9.625 6.1875 9 8 C8.67 7.01 8.34 6.02 8 5 C6.02 5.33 4.04 5.66 2 6 C2.33 4.68 2.66 3.36 3 2 C2.01 1.34 1.02 0.68 0 0 Z " fill="#EDBE6D" transform="translate(371,201)"/>
<path d="M0 0 C1.67542976 0.28604898 3.34385343 0.61781233 5 1 C4.67 2.32 4.34 3.64 4 5 C2.68 5.33 1.36 5.66 0 6 C-0.38218767 4.34385343 -0.71395102 2.67542976 -1 1 C-0.67 0.67 -0.34 0.34 0 0 Z " fill="#221F55" transform="translate(375,205)"/>
<path d="M0 0 C2.0625 0.4375 2.0625 0.4375 4 1 C3.67 2.65 3.34 4.3 3 6 C1.35 5.67 -0.3 5.34 -2 5 C-1.125 1.125 -1.125 1.125 0 0 Z " fill="#141453" transform="translate(92,137)"/>
<path d="M0 0 C1.65 0.33 3.3 0.66 5 1 C5 2.32 5 3.64 5 5 C3.125 5.625 3.125 5.625 1 6 C0.34 5.34 -0.32 4.68 -1 4 C-0.625 1.875 -0.625 1.875 0 0 Z " fill="#141453" transform="translate(135,109)"/>
<path d="M0 0 C1.2065625 0.0309375 1.2065625 0.0309375 2.4375 0.0625 C2.4375 1.7125 2.4375 3.3625 2.4375 5.0625 C0.7875 5.0625 -0.8625 5.0625 -2.5625 5.0625 C-3.125 3.125 -3.125 3.125 -3.5625 1.0625 C-2.5625 0.0625 -2.5625 0.0625 0 0 Z " fill="#161653" transform="translate(94.5625,356.9375)"/>
<path d="M0 0 C1.32 0 2.64 0 4 0 C4 1.65 4 3.3 4 5 C2.68 5.33 1.36 5.66 0 6 C-0.66 4.68 -1.32 3.36 -2 2 C-1.34 1.34 -0.68 0.68 0 0 Z " fill="#141453" transform="translate(33,225)"/>
<path d="M0 0 C1.65 0 3.3 0 5 0 C5.5625 1.9375 5.5625 1.9375 6 4 C5 5 5 5 2.4375 5.0625 C1.2309375 5.0315625 1.2309375 5.0315625 0 5 C0 3.35 0 1.7 0 0 Z " fill="#191854" transform="translate(210,138)"/>
<path d="M0 0 C1.65 0.33 3.3 0.66 5 1 C4.67 2.32 4.34 3.64 4 5 C2.35 5 0.7 5 -1 5 C-0.67 3.35 -0.34 1.7 0 0 Z " fill="#0E0F52" transform="translate(162,357)"/>
<path d="M0 0 C0.66 0 1.32 0 2 0 C2.309375 0.94875 2.61875 1.8975 2.9375 2.875 C5.26242495 6.39761356 5.77503367 6.53837198 9.6875 7.375 C11.12117128 7.60822882 12.5581019 7.82467486 14 8 C14 8.33 14 8.66 14 9 C6.26528647 9.9099663 6.26528647 9.9099663 3.2890625 7.76953125 C1.02664743 5.12132864 0 3.52033808 0 0 Z " fill="#2E2856" transform="translate(67,252)"/>
<path d="M0 0 C3.68805814 2.93153339 5.34125328 5.06658788 5.9375 9.6875 C6.15234375 12.01171875 6.15234375 12.01171875 6 14 C5.34 14.66 4.68 15.32 4 16 C3.96261719 15.30132812 3.92523438 14.60265625 3.88671875 13.8828125 C3.82097656 12.97273437 3.75523438 12.06265625 3.6875 11.125 C3.62949219 10.22007812 3.57148437 9.31515625 3.51171875 8.3828125 C3.2117961 5.63778399 3.2117961 5.63778399 0 4 C0 2.68 0 1.36 0 0 Z " fill="#2A2555" transform="translate(83,239)"/>
<path d="M0 0 C1.65 0.33 3.3 0.66 5 1 C4.67 2.32 4.34 3.64 4 5 C2.35 4.67 0.7 4.34 -1 4 C-0.67 2.68 -0.34 1.36 0 0 Z " fill="#0D0F52" transform="translate(71,380)"/>
<path d="M0 0 C1.98 0.495 1.98 0.495 4 1 C3.67 2.65 3.34 4.3 3 6 C1.68 5.67 0.36 5.34 -1 5 C-0.67 3.35 -0.34 1.7 0 0 Z " fill="#0D0F52" transform="translate(93,327)"/>
<path d="M0 0 C2.125 0.375 2.125 0.375 4 1 C2.75 3.5 2.75 3.5 1 6 C-0.32 6 -1.64 6 -3 6 C-2.42655063 3.13275314 -2.1385485 2.1385485 0 0 Z " fill="#876E61" transform="translate(75,244)"/>
<path d="M0 0 C0 3.3 0 6.6 0 10 C-3.375 5.5 -3.375 5.5 -4 2 C-1 0 -1 0 0 0 Z " fill="#79635E" transform="translate(194,183)"/>
<path d="M0 0 C0.66 0 1.32 0 2 0 C2.33 2.31 2.66 4.62 3 7 C1.68 7 0.36 7 -1 7 C-0.67 4.69 -0.34 2.38 0 0 Z " fill="#211E55" transform="translate(276,247)"/>
<path d="M0 0 C1.98 0 3.96 0 6 0 C6.33 1.32 6.66 2.64 7 4 C5.35 4 3.7 4 2 4 C1.34 2.68 0.68 1.36 0 0 Z " fill="#987B63" transform="translate(112,310)"/>
<path d="M0 0 C2.01822917 0.06510417 4.03645833 0.13020833 6.0546875 0.1953125 C6.3846875 0.8553125 6.7146875 1.5153125 7.0546875 2.1953125 C5.7965625 2.1128125 4.5384375 2.0303125 3.2421875 1.9453125 C1.06145676 1.87808451 1.06145676 1.87808451 -0.9453125 2.1953125 C-2.85787962 4.07609123 -2.85787962 4.07609123 -3.9453125 6.1953125 C-4.6053125 6.1953125 -5.2653125 6.1953125 -5.9453125 6.1953125 C-3.20430126 0.32171699 -3.20430126 0.32171699 0 0 Z " fill="#62515C" transform="translate(185.9453125,178.8046875)"/>
<path d="M0 0 C1.65 0 3.3 0 5 0 C4.6875 1.9375 4.6875 1.9375 4 4 C3.01 4.33 2.02 4.66 1 5 C0.67 3.35 0.34 1.7 0 0 Z " fill="#372F57" transform="translate(176,316)"/>
<path d="M0 0 C0.33 0 0.66 0 1 0 C1.125 2.375 1.125 2.375 1 5 C-1 7 -1 7 -3.625 7.125 C-4.40875 7.08375 -5.1925 7.0425 -6 7 C-4.625 5.5 -4.625 5.5 -3 4 C-2.34 4 -1.68 4 -1 4 C-0.67 2.68 -0.34 1.36 0 0 Z " fill="#927761" transform="translate(191,311)"/>
<path d="M0 0 C1.65 0 3.3 0 5 0 C4.34 1.32 3.68 2.64 3 4 C1.68 4 0.36 4 -1 4 C-0.67 2.68 -0.34 1.36 0 0 Z " fill="#9C7F63" transform="translate(185,310)"/>
<path d="M0 0 C-0.99 1.485 -0.99 1.485 -2 3 C-4.625 3.1875 -4.625 3.1875 -7 3 C-6.67 2.01 -6.34 1.02 -6 0 C-3.50907189 -1.24546405 -2.58919267 -0.7767578 0 0 Z " fill="#9E8061" transform="translate(119,187)"/>
<path d="M0 0 C2.31 0 4.62 0 7 0 C7.66 1.32 8.32 2.64 9 4 C7.35 3.67 5.7 3.34 4 3 C4 2.34 4 1.68 4 1 C2.68 0.67 1.36 0.34 0 0 Z " fill="#A28362" transform="translate(181,186)"/>
<path d="M0 0 C0.66 0 1.32 0 2 0 C1.74438677 2.3431213 1.40729228 4.67843403 1 7 C0.01 7.495 0.01 7.495 -1 8 C-1.04241723 5.66705225 -1.04092937 3.33297433 -1 1 C-0.67 0.67 -0.34 0.34 0 0 Z " fill="#8B7161" transform="translate(111,181)"/>
<path d="M0 0 C0 0.66 0 1.32 0 2 C-1.11375 2.474375 -2.2275 2.94875 -3.375 3.4375 C-5.26710994 4.25306463 -7.15712709 5.07856355 -9 6 C-6.97377245 1.32409027 -5.29661848 0 0 0 Z " fill="#1A1954" transform="translate(113,174)"/>
<path d="M0 0 C1.5625 1.75 1.5625 1.75 3 4 C2.8125 6.1875 2.8125 6.1875 2 8 C1.01 8.495 1.01 8.495 0 9 C0 6.03 0 3.06 0 0 Z " fill="#836B60" transform="translate(109,309)"/>
<path d="M0 0 C0.66 0 1.32 0 2 0 C5.875 6.75 5.875 6.75 7 9 C3.17475764 7.549046 1.80909034 5.61818068 0 2 C0 1.34 0 0.68 0 0 Z " fill="#191854" transform="translate(65,252)"/>
<path d="M0 0 C1.98 0 3.96 0 6 0 C3.64722731 2.72426311 1.37503669 3.8141763 -2 5 C-2 4.01 -2 3.02 -2 2 C-1.34 2 -0.68 2 0 2 C0 1.34 0 0.68 0 0 Z " fill="#BF9A68" transform="translate(381,207)"/>
<path d="M0 0 C2.375 0.6875 2.375 0.6875 5 2 C6.3125 4.625 6.3125 4.625 7 7 C5.1875 6.875 5.1875 6.875 3 6 C1.25 2.9375 1.25 2.9375 0 0 Z " fill="#2E2856" transform="translate(120,178)"/>
<path d="M0 0 C1.32 0.33 2.64 0.66 4 1 C4.66 3.31 5.32 5.62 6 8 C5.01 7.67 4.02 7.34 3 7 C1.3125 3.4375 1.3125 3.4375 0 0 Z " fill="#413759" transform="translate(119,306)"/>
</svg>
